<svg xmlns="http://www.w3.org/2000/svg" xmlns:xlink="http://www.w3.org/1999/xlink" width="500" zoomAndPan="magnify" viewBox="0 0 375 374.999991" height="500" preserveAspectRatio="xMidYMid meet" version="1.0"><defs><g/></defs><g fill="#ffffff" fill-opacity="1"><g transform="translate(138.74683, 149.799974)"><g><path d="M 3.78125 0 L 3.78125 -30.953125 L 13.71875 -30.953125 L 13.71875 0 Z M 3.78125 0 "/></g></g></g><g fill="#ffffff" fill-opacity="1"><g transform="translate(156.247295, 149.799974)"><g><path d="M 29.921875 0 L 29.921875 -11.15625 C 29.921875 -12.539062 29.972656 -13.957031 30.078125 -15.40625 C 30.179688 -16.863281 30.289062 -18.085938 30.40625 -19.078125 C 30.53125 -20.066406 30.609375 -20.695312 30.640625 -20.96875 L 30.46875 -20.96875 L 24.75 0 L 16.96875 0 L 11.203125 -20.921875 L 11.03125 -20.921875 C 11.050781 -20.648438 11.128906 -20.023438 11.265625 -19.046875 C 11.398438 -18.078125 11.523438 -16.863281 11.640625 -15.40625 C 11.765625 -13.957031 11.828125 -12.539062 11.828125 -11.15625 L 11.828125 0 L 2.703125 0 L 2.703125 -30.953125 L 16.734375 -30.953125 L 21.421875 -13.09375 L 21.59375 -13.09375 L 26.234375 -30.953125 L 39.78125 -30.953125 L 39.78125 0 Z M 29.921875 0 "/></g></g></g><g fill="#ffffff" fill-opacity="1"><g transform="translate(198.716282, 149.799974)"><g><path d="M 24.296875 -30.953125 L 36.625 -30.953125 L 25.515625 -18.21875 L 36.859375 0 L 25.109375 0 L 18.671875 -11.34375 L 13.28125 -6.9375 L 13.28125 0 L 3.328125 0 L 3.328125 -30.953125 L 13.28125 -30.953125 L 13.28125 -17.734375 Z M 24.296875 -30.953125 "/></g></g></g><g fill="#ffffff" fill-opacity="1"><g transform="translate(134.996831, 191.049971)"><g><path d="M 20.703125 -30.953125 C 22.617188 -30.953125 24.328125 -30.507812 25.828125 -29.625 C 27.328125 -28.75 28.492188 -27.535156 29.328125 -25.984375 C 30.171875 -24.441406 30.59375 -22.710938 30.59375 -20.796875 L 30.59375 -20.203125 C 30.59375 -18.285156 30.171875 -16.546875 29.328125 -14.984375 C 28.492188 -13.421875 27.328125 -12.195312 25.828125 -11.3125 C 24.328125 -10.425781 22.617188 -9.984375 20.703125 -9.984375 L 13.28125 -9.984375 L 13.28125 0 L 3.328125 0 L 3.328125 -30.953125 Z M 13.28125 -17.234375 L 17.375 -17.234375 C 18.414062 -17.234375 19.195312 -17.503906 19.71875 -18.046875 C 20.25 -18.585938 20.515625 -19.320312 20.515625 -20.25 L 20.515625 -20.609375 C 20.515625 -21.566406 20.25 -22.304688 19.71875 -22.828125 C 19.195312 -23.359375 18.414062 -23.625 17.375 -23.625 L 13.28125 -23.625 Z M 13.28125 -17.234375 "/></g></g></g><g fill="#ffffff" fill-opacity="1"><g transform="translate(167.478411, 191.049971)"><g><path d="M 24.078125 0 L 22.765625 -4.359375 L 11.921875 -4.359375 L 10.625 0 L 0.453125 0 L 11.75 -30.953125 L 23.3125 -30.953125 L 34.609375 0 Z M 14 -11.296875 L 20.703125 -11.296875 L 17.453125 -22.3125 L 17.28125 -22.3125 Z M 14 -11.296875 "/></g></g></g><g fill="#ffffff" fill-opacity="1"><g transform="translate(202.479328, 191.049971)"><g><path d="M 25.46875 0 L 12.46875 -15.03125 L 12.46875 0 L 3.328125 0 L 3.328125 -30.953125 L 12.015625 -30.953125 L 25.015625 -15.703125 L 25.015625 -30.953125 L 34.15625 -30.953125 L 34.15625 0 Z M 25.46875 0 "/></g></g></g><g fill="#ffffff" fill-opacity="1"><g transform="translate(136.250737, 232.299969)"><g><path d="M 16.734375 -30.953125 C 27.566406 -30.953125 32.984375 -25.796875 32.984375 -15.484375 C 32.984375 -5.160156 27.566406 0 16.734375 0 L 3.328125 0 L 3.328125 -30.953125 Z M 13.28125 -7.421875 L 16.5625 -7.421875 C 20.726562 -7.421875 22.8125 -9.65625 22.8125 -14.125 L 22.8125 -16.828125 C 22.8125 -21.296875 20.726562 -23.53125 16.5625 -23.53125 L 13.28125 -23.53125 Z M 13.28125 -7.421875 "/></g></g></g><g fill="#ffffff" fill-opacity="1"><g transform="translate(171.251654, 232.299969)"><g><path d="M 3.328125 -30.953125 L 30.109375 -30.953125 L 30.109375 -23.53125 L 13.28125 -23.53125 L 13.28125 -19.265625 L 27.671875 -19.265625 L 27.671875 -12.15625 L 13.28125 -12.15625 L 13.28125 -7.421875 L 30.421875 -7.421875 L 30.421875 0 L 3.328125 0 Z M 3.328125 -30.953125 "/></g></g></g><g fill="#ffffff" fill-opacity="1"><g transform="translate(203.733234, 232.299969)"><g><path d="M 22.546875 0 L 12.59375 0 L 12.59375 -12.015625 L 0.3125 -30.953125 L 11.75 -30.953125 L 17.6875 -20.65625 L 17.859375 -20.65625 L 23.8125 -30.953125 L 34.65625 -30.953125 L 22.546875 -12.015625 Z M 22.546875 0 "/></g></g></g></svg>