<svg xmlns="http://www.w3.org/2000/svg" xmlns:xlink="http://www.w3.org/1999/xlink" width="500" zoomAndPan="magnify" viewBox="0 0 375 374.999991" height="500" preserveAspectRatio="xMidYMid meet" version="1.0"><defs><g/><clipPath id="5534b4ec1a"><path d="M 81 170.066406 L 140.925781 170.066406 L 140.925781 198.566406 L 81 198.566406 Z M 81 170.066406 " clip-rule="nonzero"/></clipPath></defs><rect x="-37.5" width="450" fill="#ffffff" y="-37.499999" height="449.999989" fill-opacity="1"/><rect x="-37.5" width="450" fill="#ffffff" y="-37.499999" height="449.999989" fill-opacity="1"/><rect x="-37.5" width="450" fill="#441414" y="-37.499999" height="449.999989" fill-opacity="1"/><g clip-path="url(#5534b4ec1a)"><path fill="#ffffff" d="M 110.921875 198.578125 C 93.078125 198.578125 81.089844 195.515625 81.089844 192.65625 C 81.089844 191.238281 84.207031 189.738281 89.429688 188.636719 C 90.53125 189.023438 99.773438 192.128906 111.785156 192.128906 C 118.152344 192.128906 125.292969 191.25 132.410156 188.636719 C 137.640625 189.738281 140.761719 191.238281 140.761719 192.65625 C 140.761719 195.515625 128.773438 198.578125 110.921875 198.578125 Z M 95.257812 174.792969 C 96.207031 172.421875 98.480469 170.890625 101.050781 170.890625 C 101.078125 170.890625 101.101562 170.886719 101.128906 170.882812 C 101.171875 170.875 105.296875 170.066406 110.722656 171.765625 C 110.289062 171.976562 109.886719 172.222656 109.492188 172.472656 C 108.910156 172.835938 108.363281 173.183594 107.746094 173.378906 C 106.46875 173.792969 104.984375 173.730469 103.546875 173.667969 C 103.277344 173.65625 103.011719 173.644531 102.75 173.636719 C 102.746094 173.636719 102.742188 173.636719 102.738281 173.636719 C 102.523438 173.636719 102.347656 173.804688 102.339844 174.019531 C 102.335938 174.238281 102.507812 174.421875 102.726562 174.429688 C 102.984375 174.4375 103.246094 174.449219 103.511719 174.460938 C 104.953125 174.523438 106.582031 174.589844 107.992188 174.132812 C 108.703125 173.90625 109.320312 173.515625 109.917969 173.140625 C 110.578125 172.726562 111.203125 172.335938 111.921875 172.164062 C 112.003906 172.171875 112.082031 172.148438 112.152344 172.109375 C 118.539062 170.6875 120.742188 170.886719 120.804688 170.890625 C 123.335938 170.890625 125.660156 172.457031 126.59375 174.792969 L 131.097656 186.0625 C 113.0625 192.269531 95.128906 187.425781 90.753906 186.050781 Z M 90.460938 186.789062 C 93.179688 187.648438 101.417969 189.941406 111.75 189.941406 C 117.8125 189.941406 124.59375 189.140625 131.390625 186.796875 L 131.863281 187.988281 C 112.449219 195 92.902344 188.96875 89.980469 187.988281 L 90.460938 186.789062 " fill-opacity="1" fill-rule="nonzero"/></g><g fill="#ffffff" fill-opacity="1"><g transform="translate(151.337954, 195.103831)"><g><path d="M 7.0625 -24.46875 C 9 -24.46875 10.4375 -23.953125 11.375 -22.921875 C 12.320312 -21.898438 12.796875 -20.398438 12.796875 -18.421875 L 12.796875 -15.234375 C 12.796875 -13.253906 12.320312 -11.75 11.375 -10.71875 C 10.4375 -9.695312 9 -9.1875 7.0625 -9.1875 L 5.25 -9.1875 L 5.25 0 L 1.390625 0 L 1.390625 -24.46875 Z M 5.25 -20.96875 L 5.25 -12.6875 L 7.0625 -12.6875 C 7.664062 -12.6875 8.128906 -12.847656 8.453125 -13.171875 C 8.785156 -13.503906 8.953125 -14.113281 8.953125 -15 L 8.953125 -18.671875 C 8.953125 -19.554688 8.785156 -20.160156 8.453125 -20.484375 C 8.128906 -20.804688 7.664062 -20.96875 7.0625 -20.96875 Z M 5.25 -20.96875 "/></g></g></g><g fill="#ffffff" fill-opacity="1"><g transform="translate(164.691423, 195.103831)"><g><path d="M 9.4375 0 C 9.394531 -0.164062 9.347656 -0.316406 9.296875 -0.453125 C 9.253906 -0.597656 9.210938 -0.773438 9.171875 -0.984375 C 9.140625 -1.191406 9.117188 -1.457031 9.109375 -1.78125 C 9.097656 -2.101562 9.09375 -2.507812 9.09375 -3 L 9.09375 -6.84375 C 9.09375 -7.988281 8.894531 -8.796875 8.5 -9.265625 C 8.101562 -9.734375 7.460938 -9.96875 6.578125 -9.96875 L 5.25 -9.96875 L 5.25 0 L 1.390625 0 L 1.390625 -24.46875 L 7.203125 -24.46875 C 9.203125 -24.46875 10.648438 -24 11.546875 -23.0625 C 12.441406 -22.132812 12.890625 -20.726562 12.890625 -18.84375 L 12.890625 -16.921875 C 12.890625 -14.398438 12.050781 -12.742188 10.375 -11.953125 C 11.351562 -11.554688 12.023438 -10.910156 12.390625 -10.015625 C 12.753906 -9.117188 12.9375 -8.03125 12.9375 -6.75 L 12.9375 -2.96875 C 12.9375 -2.363281 12.957031 -1.832031 13 -1.375 C 13.050781 -0.925781 13.171875 -0.46875 13.359375 0 Z M 5.25 -20.96875 L 5.25 -13.453125 L 6.75 -13.453125 C 7.46875 -13.453125 8.03125 -13.640625 8.4375 -14.015625 C 8.84375 -14.390625 9.046875 -15.066406 9.046875 -16.046875 L 9.046875 -18.453125 C 9.046875 -19.335938 8.890625 -19.976562 8.578125 -20.375 C 8.265625 -20.769531 7.769531 -20.96875 7.09375 -20.96875 Z M 5.25 -20.96875 "/></g></g></g><g fill="#ffffff" fill-opacity="1"><g transform="translate(178.744025, 195.103831)"><g><path d="M 4.921875 -5.625 C 4.921875 -4.738281 5.101562 -4.113281 5.46875 -3.75 C 5.832031 -3.394531 6.316406 -3.21875 6.921875 -3.21875 C 7.523438 -3.21875 8.003906 -3.394531 8.359375 -3.75 C 8.722656 -4.113281 8.90625 -4.738281 8.90625 -5.625 L 8.90625 -18.84375 C 8.90625 -19.726562 8.722656 -20.347656 8.359375 -20.703125 C 8.003906 -21.066406 7.523438 -21.25 6.921875 -21.25 C 6.316406 -21.25 5.832031 -21.066406 5.46875 -20.703125 C 5.101562 -20.347656 4.921875 -19.726562 4.921875 -18.84375 Z M 1.078125 -18.59375 C 1.078125 -20.570312 1.578125 -22.09375 2.578125 -23.15625 C 3.585938 -24.21875 5.035156 -24.75 6.921875 -24.75 C 8.804688 -24.75 10.25 -24.21875 11.25 -23.15625 C 12.257812 -22.09375 12.765625 -20.570312 12.765625 -18.59375 L 12.765625 -5.875 C 12.765625 -3.894531 12.257812 -2.375 11.25 -1.3125 C 10.25 -0.25 8.804688 0.28125 6.921875 0.28125 C 5.035156 0.28125 3.585938 -0.25 2.578125 -1.3125 C 1.578125 -2.375 1.078125 -3.894531 1.078125 -5.875 Z M 1.078125 -18.59375 "/></g></g></g><g fill="#ffffff" fill-opacity="1"><g transform="translate(192.586892, 195.103831)"><g><path d="M 0.34375 -3.5 C 0.5625 -3.46875 0.785156 -3.453125 1.015625 -3.453125 C 1.242188 -3.453125 1.460938 -3.453125 1.671875 -3.453125 C 2.285156 -3.453125 2.804688 -3.601562 3.234375 -3.90625 C 3.660156 -4.21875 3.875 -4.847656 3.875 -5.796875 L 3.875 -24.46875 L 7.71875 -24.46875 L 7.71875 -6.078125 C 7.71875 -4.847656 7.566406 -3.835938 7.265625 -3.046875 C 6.960938 -2.253906 6.554688 -1.628906 6.046875 -1.171875 C 5.535156 -0.710938 4.945312 -0.390625 4.28125 -0.203125 C 3.613281 -0.0234375 2.921875 0.0625 2.203125 0.0625 C 1.847656 0.0625 1.53125 0.0625 1.25 0.0625 C 0.976562 0.0625 0.675781 0.0390625 0.34375 0 Z M 0.34375 -3.5 "/></g></g></g><g fill="#ffffff" fill-opacity="1"><g transform="translate(201.535815, 195.103831)"><g><path d="M 5.25 -14.15625 L 10.515625 -14.15625 L 10.515625 -10.65625 L 5.25 -10.65625 L 5.25 -3.5 L 11.890625 -3.5 L 11.890625 0 L 1.390625 0 L 1.390625 -24.46875 L 11.890625 -24.46875 L 11.890625 -20.96875 L 5.25 -20.96875 Z M 5.25 -14.15625 "/></g></g></g><g fill="#ffffff" fill-opacity="1"><g transform="translate(214.399897, 195.103831)"><g><path d="M 12.546875 -9.125 L 12.546875 -5.875 C 12.546875 -3.894531 12.0625 -2.375 11.09375 -1.3125 C 10.125 -0.25 8.695312 0.28125 6.8125 0.28125 C 4.925781 0.28125 3.5 -0.25 2.53125 -1.3125 C 1.5625 -2.375 1.078125 -3.894531 1.078125 -5.875 L 1.078125 -18.59375 C 1.078125 -20.570312 1.5625 -22.09375 2.53125 -23.15625 C 3.5 -24.21875 4.925781 -24.75 6.8125 -24.75 C 8.695312 -24.75 10.125 -24.21875 11.09375 -23.15625 C 12.0625 -22.09375 12.546875 -20.570312 12.546875 -18.59375 L 12.546875 -16.21875 L 8.90625 -16.21875 L 8.90625 -18.84375 C 8.90625 -19.726562 8.722656 -20.347656 8.359375 -20.703125 C 8.003906 -21.066406 7.523438 -21.25 6.921875 -21.25 C 6.316406 -21.25 5.832031 -21.066406 5.46875 -20.703125 C 5.101562 -20.347656 4.921875 -19.726562 4.921875 -18.84375 L 4.921875 -5.625 C 4.921875 -4.738281 5.101562 -4.117188 5.46875 -3.765625 C 5.832031 -3.421875 6.316406 -3.25 6.921875 -3.25 C 7.523438 -3.25 8.003906 -3.421875 8.359375 -3.765625 C 8.722656 -4.117188 8.90625 -4.738281 8.90625 -5.625 L 8.90625 -9.125 Z M 12.546875 -9.125 "/></g></g></g><g fill="#ffffff" fill-opacity="1"><g transform="translate(227.893197, 195.103831)"><g><path d="M 0.28125 -24.46875 L 12.15625 -24.46875 L 12.15625 -20.96875 L 8.140625 -20.96875 L 8.140625 0 L 4.296875 0 L 4.296875 -20.96875 L 0.28125 -20.96875 Z M 0.28125 -24.46875 "/></g></g></g><g fill="#ffffff" fill-opacity="1"><g transform="translate(240.337797, 195.103831)"><g/></g></g><g fill="#ffffff" fill-opacity="1"><g transform="translate(245.756086, 195.103831)"><g><path d="M 1.390625 -24.46875 L 7.484375 -24.46875 C 9.410156 -24.46875 10.847656 -23.953125 11.796875 -22.921875 C 12.742188 -21.898438 13.21875 -20.398438 13.21875 -18.421875 L 13.21875 -6.046875 C 13.21875 -4.066406 12.742188 -2.5625 11.796875 -1.53125 C 10.847656 -0.507812 9.410156 0 7.484375 0 L 1.390625 0 Z M 5.25 -20.96875 L 5.25 -3.5 L 7.40625 -3.5 C 8.007812 -3.5 8.488281 -3.671875 8.84375 -4.015625 C 9.195312 -4.367188 9.375 -4.988281 9.375 -5.875 L 9.375 -18.59375 C 9.375 -19.476562 9.195312 -20.09375 8.84375 -20.4375 C 8.488281 -20.789062 8.007812 -20.96875 7.40625 -20.96875 Z M 5.25 -20.96875 "/></g></g></g><g fill="#ffffff" fill-opacity="1"><g transform="translate(260.018434, 195.103831)"><g><path d="M 9.4375 0 C 9.394531 -0.164062 9.347656 -0.316406 9.296875 -0.453125 C 9.253906 -0.597656 9.210938 -0.773438 9.171875 -0.984375 C 9.140625 -1.191406 9.117188 -1.457031 9.109375 -1.78125 C 9.097656 -2.101562 9.09375 -2.507812 9.09375 -3 L 9.09375 -6.84375 C 9.09375 -7.988281 8.894531 -8.796875 8.5 -9.265625 C 8.101562 -9.734375 7.460938 -9.96875 6.578125 -9.96875 L 5.25 -9.96875 L 5.25 0 L 1.390625 0 L 1.390625 -24.46875 L 7.203125 -24.46875 C 9.203125 -24.46875 10.648438 -24 11.546875 -23.0625 C 12.441406 -22.132812 12.890625 -20.726562 12.890625 -18.84375 L 12.890625 -16.921875 C 12.890625 -14.398438 12.050781 -12.742188 10.375 -11.953125 C 11.351562 -11.554688 12.023438 -10.910156 12.390625 -10.015625 C 12.753906 -9.117188 12.9375 -8.03125 12.9375 -6.75 L 12.9375 -2.96875 C 12.9375 -2.363281 12.957031 -1.832031 13 -1.375 C 13.050781 -0.925781 13.171875 -0.46875 13.359375 0 Z M 5.25 -20.96875 L 5.25 -13.453125 L 6.75 -13.453125 C 7.46875 -13.453125 8.03125 -13.640625 8.4375 -14.015625 C 8.84375 -14.390625 9.046875 -15.066406 9.046875 -16.046875 L 9.046875 -18.453125 C 9.046875 -19.335938 8.890625 -19.976562 8.578125 -20.375 C 8.265625 -20.769531 7.769531 -20.96875 7.09375 -20.96875 Z M 5.25 -20.96875 "/></g></g></g><g fill="#ffffff" fill-opacity="1"><g transform="translate(274.071037, 195.103831)"><g><path d="M 1.390625 -24.46875 L 5.25 -24.46875 L 5.25 0 L 1.390625 0 Z M 1.390625 -24.46875 "/></g></g></g><g fill="#ffffff" fill-opacity="1"><g transform="translate(280.712814, 195.103831)"><g><path d="M 7.0625 -24.46875 C 9 -24.46875 10.4375 -23.953125 11.375 -22.921875 C 12.320312 -21.898438 12.796875 -20.398438 12.796875 -18.421875 L 12.796875 -15.234375 C 12.796875 -13.253906 12.320312 -11.75 11.375 -10.71875 C 10.4375 -9.695312 9 -9.1875 7.0625 -9.1875 L 5.25 -9.1875 L 5.25 0 L 1.390625 0 L 1.390625 -24.46875 Z M 5.25 -20.96875 L 5.25 -12.6875 L 7.0625 -12.6875 C 7.664062 -12.6875 8.128906 -12.847656 8.453125 -13.171875 C 8.785156 -13.503906 8.953125 -14.113281 8.953125 -15 L 8.953125 -18.671875 C 8.953125 -19.554688 8.785156 -20.160156 8.453125 -20.484375 C 8.128906 -20.804688 7.664062 -20.96875 7.0625 -20.96875 Z M 5.25 -20.96875 "/></g></g></g></svg>