<?xml version="1.0" standalone="no"?>
<!DOCTYPE svg PUBLIC "-//W3C//DTD SVG 1.1//EN" "http://www.w3.org/Graphics/SVG/1.1/DTD/svg11.dtd" >
<svg xmlns="http://www.w3.org/2000/svg" xmlns:xlink="http://www.w3.org/1999/xlink" version="1.1">
<metadata>
Created by FontForge 20170731 at Tue Oct 16 18:26:09 2018
 By Aleksey,,,
Copyright (c) 2018 by Oliver Jeschke. All rights reserved.
</metadata>
<defs>
<font id="Shapiro-95SuperExtd" horiz-adv-x="1073" >
  <font-face 
    font-family="Shapiro 95 Super Extd"
    font-weight="335"
    font-stretch="extra-expanded"
    units-per-em="2048"
    panose-1="2 11 6 3 5 0 0 2 0 4"
    ascent="1638"
    descent="-410"
    x-height="1110"
    cap-height="1462"
    bbox="-158 -529 2862 1788"
    underline-thickness="102"
    underline-position="-816"
    unicode-range="U+000D-25FC"
  />
<missing-glyph horiz-adv-x="748" 
d="M68 0v1365h544v-1365h-544zM136 68h408v1229h-408v-1229z" />
    <glyph glyph-name=".notdef" horiz-adv-x="748" 
d="M68 0v1365h544v-1365h-544zM136 68h408v1229h-408v-1229z" />
    <glyph glyph-name="glyph1" horiz-adv-x="0" 
 />
    <glyph glyph-name="glyph2" horiz-adv-x="682" 
 />
    <glyph glyph-name="uni000D" unicode="&#xd;" horiz-adv-x="256" 
 />
    <glyph glyph-name="space" unicode=" " horiz-adv-x="718" 
 />
    <glyph glyph-name="exclam" unicode="!" horiz-adv-x="870" 
d="M718 578h-567l-85 625v259h738v-259zM101 0v470h667v-470h-667z" />
    <glyph glyph-name="quotedbl" unicode="&#x22;" horiz-adv-x="1095" 
d="M457 725h-402v737h402v-737zM1042 725h-403v737h403v-737z" />
    <glyph glyph-name="numbersign" unicode="#" horiz-adv-x="1865" 
d="M1768 831h-276l-62 -228h283l-74 -261h-280l-93 -342h-385l94 342h-288l-94 -342h-386l94 342h-279l73 261h278l62 228h-285l73 263h285l93 338h385l-93 -338h287l93 338h383l-92 -338h279zM1046 603l62 228h-287l-63 -228h288z" />
    <glyph glyph-name="dollar" unicode="$" horiz-adv-x="2131" 
d="M2096 468q0 -96 -24 -169.5t-77 -127t-126.5 -89.5t-182.5 -58.5t-234.5 -33t-292.5 -12.5v-224h-208v224q-195 3 -337 19t-256.5 51t-185 92.5t-110 142t-44.5 200.5h734q17 -69 65 -106.5t134 -50.5v216l-335 30q-109 10 -192 27t-155.5 48.5t-119 77t-73 112.5
t-26.5 155q0 102 38.5 179.5t110.5 130t184.5 85.5t250 49t317.5 19v178h208v-178q174 -4 307 -20t242 -50t179 -87.5t110 -131.5t44 -181h-721q-21 94 -161 120v-185l375 -29q282 -21 422 -119t140 -304zM945 936h6v177q-184 -12 -184 -94q0 -39 39 -57.5t139 -25.5z
M1159 322q197 15 197 105q0 46 -41 66t-137 28l-19 2v-201z" />
    <glyph glyph-name="percent" unicode="%" horiz-adv-x="2508" 
d="M568 1465q275 0 400.5 -101.5t125.5 -320.5t-125.5 -321t-400.5 -102t-401 102t-126 321t126 320.5t401 101.5zM1586 1436h296l-959 -1436h-294zM568 873q65 0 99 38.5t34 131.5t-34 131t-99 38t-99.5 -38t-34.5 -131t34.5 -131.5t99.5 -38.5zM1942 816
q275 0 400.5 -101.5t125.5 -320.5t-125.5 -321t-400.5 -102t-401 102t-126 321t126 320.5t401 101.5zM1942 224q65 0 99 38.5t34 131.5t-34 131t-99 38t-99.5 -38t-34.5 -131t34.5 -131.5t99.5 -38.5z" />
    <glyph glyph-name="ampersand" unicode="&#x26;" horiz-adv-x="2459" 
d="M2485 0h-796l-110 76q-301 -109 -617 -109q-180 0 -316.5 12t-254 42t-192.5 79.5t-117 125.5t-42 179q0 168 90.5 265t271.5 143l80 20q-88 65 -126 129.5t-38 167.5q0 104 50 175.5t154 113t244.5 59t340.5 17.5q160 0 281.5 -11t221 -36.5t163 -67t97.5 -104
t34 -146.5q0 -117 -75 -192.5t-224 -123.5l-216 -70l225 -152q50 85 57 171h578q-9 -243 -236 -443zM928 1104q0 -28 27.5 -56t93.5 -73l106 27q136 33 136 105q0 94 -184 94q-179 0 -179 -97zM1025 285q104 0 209 29l-373 257q-81 -29 -118.5 -63.5t-37.5 -83.5
q0 -139 320 -139z" />
    <glyph glyph-name="quotesingle" unicode="'" horiz-adv-x="512" 
d="M457 725h-402v737h402v-737z" />
    <glyph glyph-name="parenleft" unicode="(" horiz-adv-x="999" 
d="M618 582q0 -153 30 -296t71 -241t96.5 -187t92 -132.5t71.5 -77.5h-510q-37 24 -77.5 60.5t-93.5 94.5t-99.5 136t-87 171.5t-64 216t-23.5 255.5t23.5 255.5t64 216t87 171.5t99.5 136t93.5 94.5t77.5 60.5h510q-35 -34 -71.5 -77.5t-92 -132.5t-96.5 -187t-71 -241
t-30 -296z" />
    <glyph glyph-name="parenright" unicode=")" horiz-adv-x="999" 
d="M380 582q0 153 -30 296t-71 241t-96.5 187t-92 132.5t-71.5 77.5h511q31 -20 65 -48.5t78.5 -76.5t85 -103t80.5 -132t69.5 -161t47.5 -191.5t18 -221.5t-18 -221.5t-47.5 -191.5t-69.5 -161t-80.5 -132t-85 -103t-78.5 -76.5t-65 -48.5h-511q35 34 71.5 77.5t92 132.5
t96.5 187t71 241t30 296z" />
    <glyph glyph-name="asterisk" unicode="*" horiz-adv-x="1216" 
d="M1177 1116l-294 -183l294 -178l-183 -263l-215 171l1 -254h-343l3 254l-217 -171l-183 263l296 178l-296 183l183 255l217 -159l-3 250h343l-1 -250l215 159z" />
    <glyph glyph-name="plus" unicode="+" horiz-adv-x="1273" 
d="M1187 830v-319h-379v-391h-345v391h-379v319h379v391h345v-391h379z" />
    <glyph glyph-name="comma" unicode="," horiz-adv-x="821" 
d="M754 549v-392q0 -337 -157 -479t-531 -142v206q279 0 279 258h-279v549h688z" />
    <glyph glyph-name="hyphen" unicode="-" 
d="M1006 364h-940v428h940v-428z" />
    <glyph glyph-name="period" unicode="." horiz-adv-x="821" 
d="M66 0v549h688v-549h-688z" />
    <glyph glyph-name="slash" unicode="/" horiz-adv-x="1218" 
d="M765 1462h430l-741 -1462h-430z" />
    <glyph glyph-name="zero" unicode="0" horiz-adv-x="2234" 
d="M1117 1492q552 0 814.5 -187.5t262.5 -585.5t-262.5 -586.5t-814.5 -188.5t-814.5 188.5t-262.5 586.5t262.5 585.5t814.5 187.5zM1117 399q181 0 276.5 83t95.5 237t-95.5 237t-276.5 83t-276.5 -83t-95.5 -237t95.5 -237t276.5 -83z" />
    <glyph glyph-name="one" unicode="1" horiz-adv-x="1310" 
d="M1244 1438v-1438h-671v740h-552v410h131q158 0 268 37t169.5 98.5t92.5 152.5h562z" />
    <glyph glyph-name="two" unicode="2" horiz-adv-x="2148" 
d="M940 460q-74 -12 -121.5 -35.5t-64.5 -47.5h1335v-377h-2059v58q0 105 22.5 193.5t59.5 154.5t98 121.5t124 94.5t153 73.5t169.5 57.5t187.5 49l308 74q124 30 170 59.5t46 80.5q0 106 -240 106q-271 0 -314 -170h-746q17 189 122 306t327 175.5t581 58.5
q210 0 366.5 -13.5t281 -45t201.5 -83t117 -127t40 -177.5q0 -80 -18 -144t-56 -113t-88.5 -86t-125 -65.5t-154.5 -48.5t-187 -38z" />
    <glyph glyph-name="three" unicode="3" horiz-adv-x="2172" 
d="M1824 744q71 -11 124.5 -33t97.5 -60.5t67 -99.5t23 -144q0 -127 -50.5 -211.5t-173 -142.5t-327 -83.5t-513.5 -25.5q-248 0 -423.5 19.5t-296 57.5t-191.5 103t-103.5 148t-38.5 201h740q18 -80 91.5 -116t223.5 -36q166 0 242.5 28t76.5 98q0 67 -62.5 96t-196.5 29
h-303v314h311q121 0 179 28t58 88q0 64 -74.5 91.5t-230.5 27.5q-135 0 -206.5 -34t-91.5 -104h-695q9 186 104.5 295t309 161.5t577.5 52.5q543 0 775.5 -96.5t232.5 -329.5q0 -134 -71 -209t-185 -97v-16z" />
    <glyph glyph-name="four" unicode="4" horiz-adv-x="2097" 
d="M1158 203h-1132v448l904 785h889v-861h249v-372h-249v-203h-661v203zM1158 575v435h-13l-482 -419v-16h495z" />
    <glyph glyph-name="five" unicode="5" horiz-adv-x="2136" 
d="M1994 1436v-349h-1267l-13 -187h17q186 86 519 86q456 0 653.5 -121t197.5 -395q0 -141 -50 -236.5t-170 -162t-320 -97t-499 -30.5q-238 0 -410.5 20t-289 57.5t-187.5 100t-102.5 139.5t-36.5 183h731q16 -42 48.5 -68.5t93.5 -41.5t153 -15q160 0 233.5 37t73.5 121
q0 86 -72.5 123t-230.5 37q-174 0 -289 -48h-698l62 847h1853z" />
    <glyph glyph-name="six" unicode="6" horiz-adv-x="2187" 
d="M1226 934q496 0 709.5 -106.5t213.5 -358.5q0 -131 -53.5 -226.5t-172 -163.5t-315.5 -101.5t-477 -33.5q-240 0 -414.5 24.5t-306.5 78.5t-212 144.5t-119 218.5t-39 305q0 275 108 444.5t342.5 251t618.5 81.5q990 0 1036 -483h-736q-16 55 -92.5 85.5t-206.5 30.5
q-87 0 -151.5 -13t-116 -43.5t-80 -84t-34.5 -130.5h16q167 80 482 80zM1094 599q-177 0 -256.5 -32.5t-79.5 -109.5q0 -79 80.5 -113.5t255.5 -34.5q172 0 247 34.5t75 113.5q0 77 -74.5 109.5t-247.5 32.5z" />
    <glyph glyph-name="seven" unicode="7" horiz-adv-x="2056" 
d="M21 1438h2006v-227q0 -129 -47 -215t-155 -203q-41 -45 -109 -114t-115.5 -117t-105 -118t-94.5 -132t-65.5 -144t-35.5 -168h-893q9 119 60.5 236t130.5 217t190 196.5t228.5 176t255.5 154.5v17l-1251 -2v443z" />
    <glyph glyph-name="eight" unicode="8" horiz-adv-x="2213" 
d="M1106 1492q380 0 604 -43t325 -135t101 -248q0 -236 -277 -302v-16q71 -13 124.5 -35.5t97.5 -62t67 -102.5t23 -148q0 -124 -50 -207t-172.5 -140.5t-327.5 -83t-515 -25.5t-515.5 25.5t-328 83t-172.5 140.5t-50 207q0 85 23 148t67 102.5t97.5 62t124.5 35.5v16
q-277 65 -277 302q0 156 101 248t325.5 135t604.5 43zM1106 1123q-138 0 -207 -28t-69 -94t69 -94t207 -28t207 28t69 94t-69 94t-207 28zM1106 321q145 0 217.5 29t72.5 98t-72.5 97.5t-217.5 28.5t-217.5 -28.5t-72.5 -97.5t72.5 -98t217.5 -29z" />
    <glyph glyph-name="nine" unicode="9" horiz-adv-x="2187" 
d="M961 502q-496 0 -709.5 106.5t-213.5 358.5q0 131 53.5 226.5t172 163.5t315.5 101.5t477 33.5q240 0 414.5 -24.5t306.5 -78.5t212 -144.5t119 -218.5t39 -305q0 -275 -108 -444.5t-342.5 -251t-618.5 -81.5q-990 0 -1036 483h736q16 -55 92 -85.5t207 -30.5
q87 0 151.5 13t116 43.5t80 84t34.5 130.5h-16q-167 -80 -482 -80zM1093 837q177 0 256.5 32.5t79.5 109.5q0 79 -80.5 113.5t-255.5 34.5q-172 0 -247.5 -34.5t-75.5 -113.5q0 -77 75 -109.5t248 -32.5z" />
    <glyph glyph-name="colon" unicode=":" horiz-adv-x="753" 
d="M66 635v475h621v-475h-621zM66 0v476h621v-476h-621z" />
    <glyph glyph-name="semicolon" unicode=";" horiz-adv-x="753" 
d="M66 635v475h621v-475h-621zM687 476v-319q0 -325 -146 -463t-475 -138v186q117 0 173 71.5t56 186.5h-229v476h621z" />
    <glyph glyph-name="less" unicode="&#x3c;" horiz-adv-x="1275" 
d="M86 791l1105 435v-331l-600 -226v-12l600 -226v-331l-1105 432v259z" />
    <glyph glyph-name="equal" unicode="=" horiz-adv-x="1271" 
d="M1187 1059v-318h-1103v318h1103zM1187 592v-317h-1103v317h1103z" />
    <glyph glyph-name="greater" unicode="&#x3e;" horiz-adv-x="1275" 
d="M1189 791v-259l-1105 -432v331l600 226v12l-600 226v331z" />
    <glyph glyph-name="question" unicode="?" horiz-adv-x="2017" 
d="M745 970h-704q4 93 29.5 167t67.5 129t107 95t141 65.5t178.5 41t210 21.5t243.5 6q200 0 347 -11.5t266.5 -39.5t193.5 -74.5t113 -117t39 -166.5q0 -73 -18 -127t-58.5 -94t-92.5 -68.5t-132 -57.5l-171 -62q-94 -36 -130 -65.5t-41 -63.5l-4 -18h-655v32
q0 118 70 189.5t247 132.5l143 50q74 29 103.5 50.5t29.5 54.5q0 94 -222 94q-261 0 -301 -163zM667 0v431h673v-431h-673z" />
    <glyph glyph-name="at" unicode="@" horiz-adv-x="2158" 
d="M1253 991h307l-114 -579q-14 -75 55 -75q29 0 54 2.5t58 12.5t60 26.5t54.5 47t46 71t30.5 102t12 137.5q0 174 -92 303.5t-253.5 197t-371.5 67.5q-211 0 -384 -103.5t-272 -284.5t-99 -402q0 -148 44.5 -270.5t131 -214.5t223.5 -143t313 -51q151 0 276 36t251 118h312
q-100 -173 -332 -283t-515 -110q-190 0 -352 46t-282 129.5t-204.5 199t-127 255.5t-42.5 298q0 216 84 406.5t227 325t340 212t417 77.5q278 0 510.5 -99t366 -269.5t133.5 -373.5q0 -155 -43 -277t-109.5 -196t-155.5 -122.5t-173.5 -66.5t-171.5 -18q-127 0 -195 26.5
t-77 94.5h-13q-61 -74 -134 -97.5t-164 -23.5q-159 0 -248.5 94t-89.5 259q0 119 40.5 227t117.5 188q121 123 295 120q183 -3 223 -122h13zM1066 789q-81 0 -138 -77q-32 -42 -50.5 -111t-18.5 -126q0 -132 122 -132q79 0 136 76q33 43 52 112t19 125q0 133 -122 133z" />
    <glyph glyph-name="A" unicode="A" horiz-adv-x="2375" 
d="M1668 0l-87 170h-785l-86 -170h-736l785 1462h863l780 -1462h-734zM1196 953h-16q-84 -181 -192 -400h400z" />
    <glyph glyph-name="B" unicode="B" horiz-adv-x="2220" 
d="M1900 784q63 -13 111.5 -37t88 -64.5t60.5 -104t21 -146.5q0 -106 -28.5 -183.5t-92 -134.5t-169.5 -85.5t-255 -28.5h-1571v1462h1554q266 0 386 -95.5t120 -278.5q0 -117 -57.5 -189.5t-167.5 -97.5v-17zM1280 883q130 0 130 109t-130 109h-543v-218h543zM1305 349
q141 0 141 118q0 119 -141 119h-568v-237h568z" />
    <glyph glyph-name="C" unicode="C" horiz-adv-x="2369" 
d="M1533 851q-11 81 -102 141.5t-252 60.5q-193 0 -298.5 -84t-105.5 -238t105.5 -238t298.5 -84q166 0 255 64.5t101 168.5h796q-8 -356 -286 -528t-856 -172q-585 0 -867 192.5t-282 596.5t282 596.5t867 192.5q575 0 853.5 -167t284.5 -502h-794z" />
    <glyph glyph-name="D" unicode="D" horiz-adv-x="2236" 
d="M1362 1462q213 0 366 -39.5t259.5 -126t158 -226.5t51.5 -339t-51.5 -339t-158 -226.5t-259.5 -126t-366 -39.5h-1297v1462h1297zM1148 1008h-411v-554h411q314 0 314 277t-314 277z" />
    <glyph glyph-name="E" unicode="E" horiz-adv-x="1978" 
d="M737 1091v-171h1119v-336h-1119v-190h1193v-394h-1864v1462h1848v-371h-1177z" />
    <glyph glyph-name="F" unicode="F" horiz-adv-x="1964" 
d="M1927 1012h-1190v-212h1129v-402h-1129v-398h-671v1462h1861v-450z" />
    <glyph glyph-name="G" unicode="G" horiz-adv-x="2392" 
d="M2336 804v-806h-436v164q-107 -110 -294.5 -165t-401.5 -55q-596 0 -880 192.5t-284 598.5q0 403 284.5 595t878.5 192q293 0 508 -41t349 -120.5t200.5 -190t71.5 -256.5h-791q-6 20 -27 42.5t-59 46t-105 38.5t-151 15q-207 0 -315.5 -85t-108.5 -245q0 -336 445 -336
q73 0 138.5 10t108.5 24t76.5 30t49 28t18.5 19h-346v305h1071z" />
    <glyph glyph-name="H" unicode="H" horiz-adv-x="2240" 
d="M1503 1462h672v-1462h-672v514h-766v-514h-671v1462h671v-498h766v498z" />
    <glyph glyph-name="I" unicode="I" horiz-adv-x="802" 
d="M737 0h-671v1462h671v-1462z" />
    <glyph glyph-name="J" unicode="J" horiz-adv-x="2142" 
d="M2076 1462v-789q0 -167 -43 -291t-124 -208t-208.5 -136t-285 -74t-364.5 -22t-363.5 22t-283 74t-207 136t-123 208t-42.5 291v117h672v-92q0 -267 347 -267q354 0 354 267v764h671z" />
    <glyph glyph-name="K" unicode="K" horiz-adv-x="2269" 
d="M1504 924l791 -924h-855l-444 542l-259 -202v-340h-672v1462h672v-507l629 507h846z" />
    <glyph glyph-name="L" unicode="L" horiz-adv-x="1972" 
d="M1936 0h-1870v1462h671v-973h1199v-489z" />
    <glyph glyph-name="M" unicode="M" horiz-adv-x="2691" 
d="M2625 1462v-1462h-672v907h-16l-370 -907h-478l-375 913h-17v-913h-631v1462h993l262 -694h16l258 694h1030z" />
    <glyph glyph-name="N" unicode="N" horiz-adv-x="2242" 
d="M1543 1462h634v-1462h-764l-697 743h-17v-743h-633v1462h772l689 -732h16v732z" />
    <glyph glyph-name="O" unicode="O" horiz-adv-x="2408" 
d="M1205 1520q596 0 880.5 -192t284.5 -597t-284.5 -597t-880.5 -192t-880.5 192t-284.5 597t284.5 597t880.5 192zM1205 409q210 0 320 83.5t110 238.5t-110 238.5t-320 83.5t-320 -83.5t-110 -238.5t110 -238.5t320 -83.5z" />
    <glyph glyph-name="P" unicode="P" horiz-adv-x="2166" 
d="M1491 1462q180 0 305 -33t201.5 -102.5t110.5 -169t34 -240.5q0 -139 -34 -237t-110.5 -166t-201.5 -100.5t-305 -32.5h-754v-381h-672v1462h1426zM1245 774q162 0 162 136q0 135 -162 135h-508v-271h508z" />
    <glyph glyph-name="Q" unicode="Q" horiz-adv-x="2408" 
d="M2370 731q0 -274 -129.5 -449.5t-394.5 -259.5l88 -142l-291 -117l-120 195q-141 -16 -318 -16q-596 0 -880.5 192t-284.5 597t284.5 597t880.5 192t880.5 -192t284.5 -597zM1436 688l110 -178q89 81 89 221q0 155 -110 238.5t-320 83.5t-320 -83.5t-110 -238.5
t110 -238.5t320 -83.5q26 0 39 1l-99 160z" />
    <glyph glyph-name="R" unicode="R" horiz-adv-x="2220" 
d="M1873 509l351 -509h-777l-236 372h-474v-372h-671v1462h1494q337 0 482 -125.5t145 -383.5q0 -188 -82 -287t-232 -136v-21zM1295 760q143 0 143 120q0 121 -143 121h-558v-241h558z" />
    <glyph glyph-name="S" unicode="S" horiz-adv-x="2271" 
d="M1407 1018q-35 138 -306 138q-155 0 -220 -26t-65 -76q0 -42 42 -62t148 -27l629 -47q149 -11 257 -40.5t186.5 -82.5t117.5 -134.5t39 -194.5q0 -93 -22 -165.5t-64 -127.5t-112 -95t-155.5 -66t-205 -41.5t-250.5 -22t-302 -6.5q-234 0 -400.5 14.5t-303.5 50
t-220.5 96.5t-130 154.5t-51.5 223.5h783q24 -96 103.5 -135.5t233.5 -39.5q308 0 308 117q0 49 -43.5 69.5t-146.5 30.5l-600 53q-116 10 -204.5 28.5t-166.5 52t-127.5 82t-77.5 120.5t-28 166q0 115 45.5 200.5t130 141.5t217.5 90.5t294 48.5t374 14q212 0 370.5 -14
t291.5 -48.5t217.5 -91.5t132.5 -143.5t53 -204.5h-771z" />
    <glyph glyph-name="T" unicode="T" horiz-adv-x="2113" 
d="M2082 1462v-506h-689v-956h-672v956h-689v506h2050z" />
    <glyph glyph-name="U" unicode="U" horiz-adv-x="2228" 
d="M1491 1462h671v-793q0 -204 -66 -345t-202.5 -225t-325.5 -120.5t-454 -36.5q-266 0 -455 36.5t-325 120.5t-202 225t-66 345v793h671v-762q0 -136 98 -202.5t279 -66.5q180 0 278.5 66.5t98.5 202.5v762z" />
    <glyph glyph-name="V" unicode="V" horiz-adv-x="2222" 
d="M1458 1462h793l-785 -1462h-712l-786 1462h790l224 -485q26 -57 55 -127t45 -112l16 -41h17q58 151 117 278z" />
    <glyph glyph-name="W" unicode="W" horiz-adv-x="2830" 
d="M2160 1462h701l-478 -1462h-724l-158 529q-18 60 -37.5 134.5t-29.5 118.5l-11 45h-16q-37 -163 -78 -302l-156 -525h-739l-466 1462h704l127 -489q15 -60 32 -134.5t26 -118.5l9 -45h17q36 163 73 292l144 495h630l143 -495q16 -58 34.5 -131t28.5 -117l11 -44h17
q32 163 68 302z" />
    <glyph glyph-name="X" unicode="X" horiz-adv-x="2308" 
d="M1618 767l721 -767h-862l-322 370l-323 -370h-864l721 767l-638 695h832l274 -328l274 328h827z" />
    <glyph glyph-name="Y" unicode="Y" horiz-adv-x="2211" 
d="M2249 1462l-806 -1050v-412h-673v412l-808 1050h810l335 -496l334 496h808z" />
    <glyph glyph-name="Z" unicode="Z" horiz-adv-x="2050" 
d="M2004 1035l-878 -591h878v-444h-1968v428l880 590h-831v444h1919v-427z" />
    <glyph glyph-name="bracketleft" unicode="[" horiz-adv-x="1017" 
d="M651 1140v-1115h326v-377h-912v1868h912v-376h-326z" />
    <glyph glyph-name="backslash" unicode="\" horiz-adv-x="1214" 
d="M452 1462l741 -1462h-430l-741 1462h430z" />
    <glyph glyph-name="bracketright" unicode="]" horiz-adv-x="1017" 
d="M366 1140h-326v376h911v-1868h-911v377h326v1115z" />
    <glyph glyph-name="asciicircum" unicode="^" horiz-adv-x="1449" 
d="M947 1431l463 -708h-441l-238 376h-12l-239 -376h-440l463 708h444z" />
    <glyph glyph-name="underscore" unicode="_" horiz-adv-x="1828" 
d="M1834 -215v-123h-1838v123h1838z" />
    <glyph glyph-name="grave" unicode="`" horiz-adv-x="1120" 
d="M66 1564h791l199 -338h-541z" />
    <glyph glyph-name="a" unicode="a" horiz-adv-x="1988" 
d="M1948 176q0 -47 0.5 -66t5 -48t13.5 -50v-12h-651q-19 28 -19 110v37q-84 -92 -248.5 -145.5t-394.5 -53.5q-102 0 -190 11.5t-168 38.5t-136.5 69t-90 107t-33.5 148q0 97 30.5 165t91.5 109.5t141.5 62.5t192.5 28l646 45q66 5 95.5 19.5t29.5 47.5q0 38 -51 55
t-158 17q-198 0 -242 -99h-701q4 80 33.5 141.5t86.5 104.5t132.5 71.5t183 45t224.5 23t270 6.5q158 0 272.5 -5.5t223 -19.5t180 -40t126 -66.5t80 -98.5t25.5 -136v-622zM1286 479v28q-34 -19 -104 -27l-318 -40q-76 -9 -110 -34t-34 -71q0 -49 42 -70t133 -21
q108 0 193 23t141.5 77.5t56.5 134.5z" />
    <glyph glyph-name="b" unicode="b" horiz-adv-x="2045" 
d="M731 990q202 151 516 151q763 0 763 -596q0 -597 -763 -597q-171 0 -298 41t-230 123h-12v-112h-651v1483h663v-493h12zM1018 339q163 0 235.5 51.5t72.5 154.5q0 102 -72.5 153.5t-235.5 51.5q-320 0 -320 -205q0 -206 320 -206z" />
    <glyph glyph-name="c" unicode="c" horiz-adv-x="2062" 
d="M1022 343q233 0 273 131h732q-6 -102 -39 -180t-105 -145t-184.5 -110t-282.5 -67t-394 -24q-270 0 -461 39.5t-306 119t-167 189.5t-52 259t52 259.5t167 190t306 119.5t461 40q224 0 393.5 -24.5t280.5 -67.5t182.5 -109t104.5 -142t42 -174h-728q-46 122 -275 122
q-158 0 -230 -54.5t-72 -159.5q0 -212 302 -212z" />
    <glyph glyph-name="d" unicode="d" horiz-adv-x="2045" 
d="M1315 990h12v493h664v-1483h-651v112h-13q-103 -82 -230 -123t-298 -41q-763 0 -763 597q0 596 763 596q314 0 516 -151zM1028 339q320 0 320 206q0 205 -320 205q-163 0 -235.5 -51.5t-72.5 -153.5q0 -103 72.5 -154.5t235.5 -51.5z" />
    <glyph glyph-name="e" unicode="e" horiz-adv-x="2066" 
d="M2031 555q0 -77 -6 -127h-1302q12 -91 86 -136t227 -45q227 0 275 93h704q-5 -55 -23.5 -100t-58.5 -91.5t-111.5 -81t-175 -62.5t-258.5 -42.5t-352 -14.5q-275 0 -469.5 39.5t-310.5 119t-168 189t-52 259.5q0 119 32.5 212.5t105.5 169t188.5 125t284 76t388.5 26.5
q269 0 461.5 -40t309.5 -119.5t171 -190t54 -259.5zM1035 865q-139 0 -212 -38t-94 -113h609q-21 75 -93.5 113t-209.5 38z" />
    <glyph glyph-name="f" unicode="f" horiz-adv-x="1280" 
d="M1096 1236q-128 0 -169.5 -27.5t-30.5 -98.5h339v-323h-339v-787h-663v787h-213v323h213v72q0 90 31.5 155.5t85.5 106.5t141 65t184 33t227 9q160 0 349 -25v-296q-105 6 -155 6z" />
    <glyph glyph-name="g" unicode="g" horiz-adv-x="2039" 
d="M1332 1110h651v-1020q0 -72 -5.5 -123.5t-23 -103t-47.5 -85.5t-80 -66t-120.5 -51t-169 -33.5t-224.5 -20.5t-289 -6q-178 0 -317.5 9.5t-240 26.5t-172.5 45.5t-116.5 59.5t-71.5 76t-38.5 88.5t-16.5 103.5h724q23 -51 77.5 -79.5t172.5 -28.5q119 0 183 19t88 58
t24 111v139h-12q-190 -139 -514 -139q-380 0 -569 128.5t-189 396.5q0 269 188.5 397.5t569.5 128.5q331 0 526 -148h12v117zM1024 442q163 0 240 45.5t77 127.5q0 172 -317 172q-161 0 -232.5 -43.5t-71.5 -128.5t71.5 -129t232.5 -44z" />
    <glyph glyph-name="h" unicode="h" horiz-adv-x="1951" 
d="M1305 1141q284 0 437.5 -108.5t153.5 -330.5v-702h-664v474q0 107 -58 154t-175 47q-282 0 -282 -247v-428h-661v1483h661v-514h12q211 172 576 172z" />
    <glyph glyph-name="i" unicode="i" horiz-adv-x="774" 
d="M52 1226v264h671v-264h-671zM56 0v1110h663v-1110h-663z" />
    <glyph glyph-name="j" unicode="j" horiz-adv-x="774" 
d="M52 1226v264h671v-264h-671zM-49 55q56 0 80.5 15t24.5 55v985h663v-1100q0 -70 -6 -122t-22.5 -95.5t-39 -73t-63 -52.5t-87 -36t-118 -21t-149 -11t-186.5 -3q-146 0 -206 4v457q4 0 50 -1t59 -1z" />
    <glyph glyph-name="k" unicode="k" horiz-adv-x="1959" 
d="M1337 676l645 -676h-815l-304 333l-146 -108v-225h-661v1483h661v-717l433 344h774z" />
    <glyph glyph-name="l" unicode="l" horiz-adv-x="774" 
d="M56 0v1483h663v-1483h-663z" />
    <glyph glyph-name="m" unicode="m" horiz-adv-x="2914" 
d="M707 1110v-145h12q89 83 226.5 129.5t312.5 46.5q355 0 472 -178q204 178 574 178q266 0 410.5 -108.5t144.5 -330.5v-702h-661v509q0 87 -47.5 126.5t-139.5 39.5q-44 0 -81 -9.5t-70.5 -31t-52.5 -63.5t-19 -101v-470h-661v509q0 87 -47.5 126.5t-139.5 39.5
q-44 0 -81 -9.5t-70.5 -31t-52.5 -63.5t-19 -101v-470h-661v1110h651z" />
    <glyph glyph-name="n" unicode="n" horiz-adv-x="1953" 
d="M707 1110v-143h12q228 174 588 174q284 0 437.5 -108.5t153.5 -332.5v-700h-664v474q0 106 -59 153.5t-174 47.5q-57 0 -104 -11.5t-89 -38t-65.5 -77.5t-23.5 -122v-426h-663v1110h651z" />
    <glyph glyph-name="o" unicode="o" horiz-adv-x="2041" 
d="M1021 1164q217 0 382.5 -26t279.5 -75.5t186.5 -125t105 -169t32.5 -213.5q0 -149 -52 -259t-167 -189.5t-306 -119t-461 -39.5t-461 39.5t-305.5 119t-166.5 189.5t-52 259q0 120 32.5 213.5t104.5 169t186 125t279.5 75.5t382.5 26zM1021 343q158 0 229.5 54.5
t71.5 157.5q0 105 -71.5 159.5t-229.5 54.5t-229.5 -54.5t-71.5 -159.5q0 -103 71.5 -157.5t229.5 -54.5z" />
    <glyph glyph-name="p" unicode="p" horiz-adv-x="2045" 
d="M731 99h-12v-467h-663v1478h651v-132h12q103 82 230 122.5t298 40.5q763 0 763 -596q0 -597 -763 -597q-314 0 -516 151zM1018 750q-320 0 -320 -205q0 -206 320 -206q163 0 235.5 51.5t72.5 154.5q0 102 -72.5 153.5t-235.5 51.5z" />
    <glyph glyph-name="q" unicode="q" horiz-adv-x="2045" 
d="M1315 99q-202 -151 -516 -151q-763 0 -763 597q0 596 763 596q171 0 298 -40.5t230 -122.5h13v132h651v-1478h-664v467h-12zM1028 750q-163 0 -235.5 -51.5t-72.5 -153.5q0 -103 72.5 -154.5t235.5 -51.5q320 0 320 206q0 205 -320 205z" />
    <glyph glyph-name="r" unicode="r" horiz-adv-x="1542" 
d="M56 1110h651v-167h12q115 102 261.5 150t377.5 48q81 0 155 -8v-586q-122 23 -270 23q-56 0 -105 -3t-104 -12.5t-99 -24.5t-86 -40.5t-70 -60t-45 -84t-17 -110.5v-235h-661v1110z" />
    <glyph glyph-name="s" unicode="s" horiz-adv-x="2045" 
d="M1228 787q-36 97 -256 97q-132 0 -182 -16.5t-50 -51.5q0 -30 32.5 -42.5t127.5 -20.5l631 -48q125 -9 209 -29t148 -61t94 -109t30 -168q0 -72 -20.5 -127.5t-58 -97t-101.5 -70.5t-139 -47.5t-184 -29t-222.5 -14.5t-267.5 -4q-145 0 -252.5 3.5t-216 14t-184.5 29
t-144.5 48t-110 71t-67 99.5t-28.5 132h756q24 -65 81.5 -91t175.5 -26q151 0 205.5 19.5t54.5 61.5q0 34 -31.5 47.5t-117.5 21.5l-581 51q-103 9 -178 23.5t-140.5 40.5t-106 64t-63 94t-22.5 131q0 81 27.5 142.5t85.5 103t132.5 69t184.5 42t223.5 20t267.5 5.5
q137 0 243.5 -4t212 -14.5t183 -28t145.5 -46.5t111.5 -68t69.5 -93.5t30 -122.5h-737z" />
    <glyph glyph-name="t" unicode="t" horiz-adv-x="1267" 
d="M1016 451q122 0 202 6v-457q-144 -18 -373 -18q-249 0 -384 40.5t-190.5 129t-55.5 250.5v385h-212v323h212v295h663v-295h342v-323h-342v-254q0 -49 29.5 -65.5t108.5 -16.5z" />
    <glyph glyph-name="u" unicode="u" horiz-adv-x="1951" 
d="M1243 0v144h-13q-229 -175 -586 -175q-284 0 -436 108.5t-152 332.5v700h661v-474q0 -106 59 -153.5t174 -47.5q57 0 104 11.5t89 38t65.5 77.5t23.5 122v426h664v-1110h-653z" />
    <glyph glyph-name="v" unicode="v" horiz-adv-x="1996" 
d="M1266 1110h749l-662 -1110h-707l-664 1110h749l134 -260q29 -57 61.5 -127t49.5 -111l18 -41h13q63 151 127 278z" />
    <glyph glyph-name="w" unicode="w" horiz-adv-x="2850" 
d="M2138 1110h724l-557 -1110h-614l-139 335q-25 59 -51.5 131t-40.5 114l-15 43h-13q-52 -153 -105 -284l-140 -339h-641l-558 1110h730l91 -217q24 -58 50 -129.5t40 -113.5l14 -42h13q51 155 104 284l91 218h617l94 -216q25 -57 51.5 -127.5t40.5 -112.5l15 -42h12
q48 153 101 284z" />
    <glyph glyph-name="x" unicode="x" horiz-adv-x="2064" 
d="M1487 578l595 -578h-823l-226 263l-226 -263h-825l595 578l-528 532h776l208 -242l206 242h779z" />
    <glyph glyph-name="y" unicode="y" horiz-adv-x="1996" 
d="M1266 1110h749l-620 -1042q-58 -98 -108 -167t-106 -123t-111.5 -86.5t-128 -53.5t-152 -29t-186.5 -8h-459v454h251q83 0 119.5 12t52.5 40l16 28l-601 975h749l134 -260q29 -57 61.5 -127t49.5 -111l18 -41h13q63 151 127 278z" />
    <glyph glyph-name="z" unicode="z" horiz-adv-x="1855" 
d="M1803 0h-1767v351l697 403h-652v356h1722v-340l-702 -405h702v-365z" />
    <glyph glyph-name="braceleft" unicode="{" horiz-adv-x="1116" 
d="M824 871q0 -119 -55 -189.5t-153 -93.5v-12q97 -21 152.5 -92t55.5 -190v-144q0 -31 3.5 -49.5t16.5 -38t42.5 -28.5t76.5 -9h113v-377h-428q-211 0 -310 74t-99 194v310q0 45 -10.5 75.5t-25 47t-43.5 25t-53.5 10.5t-66.5 2v394q42 0 66.5 2t53.5 10.5t43.5 25t25 47
t10.5 75.5v308q0 120 99 194t310 74h428v-376h-113q-47 0 -76.5 -9t-42.5 -28.5t-16.5 -38t-3.5 -49.5v-144z" />
    <glyph glyph-name="bar" unicode="|" horiz-adv-x="770" 
d="M706 1632v-2095h-640v2095h640z" />
    <glyph glyph-name="braceright" unicode="}" horiz-adv-x="1116" 
d="M292 871v144q0 31 -3.5 49.5t-16.5 38t-42.5 28.5t-76.5 9h-113v376h428q211 0 310.5 -74t99.5 -194v-308q0 -45 10 -75.5t25 -47t44 -25t53 -10.5t66 -2v-394q-42 0 -66 -2t-53 -10.5t-44 -25t-25 -47t-10 -75.5v-310q0 -120 -99.5 -194t-310.5 -74h-428v377h113
q47 0 76.5 9t42.5 28.5t16.5 38t3.5 49.5v144q0 119 55.5 190t152.5 92v12q-98 23 -153 93.5t-55 189.5z" />
    <glyph glyph-name="asciitilde" unicode="~" horiz-adv-x="1271" 
d="M926 742q57 0 116.5 41.5t144.5 133.5v-327q-59 -64 -121.5 -103.5t-139.5 -39.5q-102 0 -228 63l-144 71q-4 2 -21.5 10.5t-25.5 12.5t-26 11.5t-31.5 11.5t-31.5 8.5t-36 6.5t-37 2q-58 0 -116 -40t-145 -128v327q75 70 116 94q70 43 145 43q48 0 97.5 -12.5t73 -23
t61.5 -29.5l146 -71q1 -1 23 -11.5t30.5 -14.5t31 -12.5t38 -12.5t37.5 -7.5t43 -3.5z" />
    <glyph glyph-name="uni00A0" unicode="&#xa0;" horiz-adv-x="718" 
 />
    <glyph glyph-name="cent" unicode="&#xa2;" horiz-adv-x="2062" 
d="M2027 474q-6 -97 -36 -172.5t-95 -140.5t-166.5 -108.5t-253 -70.5t-351.5 -32v-222h-210v222q-240 8 -410.5 51t-273 122t-149 184.5t-46.5 247.5t47 248t149 185t272.5 122.5t410.5 51.5v188h210v-187q199 -5 350.5 -32.5t251 -71t164.5 -108t95.5 -137.5t38.5 -167
h-728q-36 92 -172 115v-411q139 23 170 123h732zM720 555q0 -172 195 -204v410q-195 -32 -195 -206z" />
    <glyph glyph-name="sterling" unicode="&#xa3;" horiz-adv-x="2013" 
d="M1210 501q134 -24 251 -24q143 0 284.5 31.5t233.5 95.5v-541q-37 -33 -170.5 -59.5t-257.5 -26.5q-313 0 -608 138q-137 -138 -462 -138q-216 0 -332.5 71.5t-116.5 235.5q0 69 20.5 121.5t53.5 84.5t79 52t91 27.5t96 7.5q76 0 152 -28q-18 45 -56 86h-345v157h186
q-116 109 -116 236q0 102 39 177.5t107.5 123t177 76.5t232 40t286.5 11q120 0 218 -5.5t196.5 -20.5t174 -39.5t143 -64t112 -92t71.5 -125.5t31 -164h-690q-10 74 -72 108t-152 34q-185 0 -185 -116q0 -39 26.5 -75.5t99.5 -103.5h373v-157h-222q56 -44 56 -99
q0 -17 -5 -35zM426 192q61 0 91 31.5t30 104.5q-63 34 -115 34q-47 0 -76 -23.5t-29 -64.5q0 -40 28.5 -61t70.5 -21z" />
    <glyph glyph-name="yen" unicode="&#xa5;" horiz-adv-x="2164" 
d="M2203 1434l-444 -580h233v-203h-388l-76 -99h464v-201h-578v-351h-661v351h-577v201h464l-77 99h-387v203h231l-445 580h794l329 -487l327 487h791z" />
    <glyph glyph-name="dieresis" unicode="&#xa8;" horiz-adv-x="1423" 
d="M66 1226v264h575v-264h-575zM783 1226v264h575v-264h-575z" />
    <glyph glyph-name="copyright" unicode="&#xa9;" horiz-adv-x="1521" 
d="M761 51q-146 0 -279.5 57.5t-230 154t-154 230t-57.5 279.5q0 196 97 362t263 262.5t361 96.5q196 0 362 -96.5t262.5 -262.5t96.5 -362q0 -195 -96.5 -361t-262.5 -263t-362 -97zM761 206q153 0 283.5 76t206.5 206.5t76 283.5t-76 283t-206.5 206.5t-283.5 76.5
t-283.5 -76.5t-206.5 -206.5t-76 -283t76 -283.5t206.5 -206.5t283.5 -76zM1108 697q-8 -129 -96 -207.5t-249 -78.5q-162 0 -258.5 91t-96.5 272q0 180 96 270t259 90q161 0 246 -75.5t92 -190.5h-219q-3 52 -34 72.5t-85 20.5q-56 0 -94.5 -41.5t-38.5 -145.5
q0 -105 38.5 -147.5t94.5 -42.5t88 24t35 89h222z" />
    <glyph glyph-name="guillemotleft" unicode="&#xab;" horiz-adv-x="1118" 
d="M57 866l464 257v-440l-235 -120v-12l235 -120v-439l-464 256v618zM595 866l465 257v-440l-236 -120v-12l236 -120v-439l-465 256v618z" />
    <glyph glyph-name="uni00AD" unicode="&#xad;" 
d="M1006 364h-940v428h940v-428z" />
    <glyph glyph-name="registered" unicode="&#xae;" horiz-adv-x="1521" 
d="M761 1493q196 0 362 -96.5t262.5 -262.5t96.5 -362q0 -195 -96.5 -361t-262.5 -263t-362 -97q-146 0 -279.5 57.5t-230 154t-154 230t-57.5 279.5q0 196 97 362t263 262.5t361 96.5zM761 206q153 0 283.5 76t206.5 206.5t76 283.5t-76 283t-206.5 206.5t-283.5 76.5
t-283.5 -76.5t-206.5 -206.5t-76 -283t76 -283.5t206.5 -206.5t283.5 -76zM1085 883q0 -154 -125 -210l149 -246h-247l-117 218h-83v-218h-215v693h368q127 0 198.5 -62t71.5 -175zM662 959v-153h113q43 0 67 21t24 56t-23.5 55.5t-67.5 20.5h-113z" />
    <glyph glyph-name="acute" unicode="&#xb4;" horiz-adv-x="1120" 
d="M1056 1564l-452 -338h-538l196 338h794z" />
    <glyph glyph-name="cedilla" unicode="&#xb8;" 
d="M686 46l-162 -153q31 10 124 10q77 0 136 -8.5t112.5 -29.5t82.5 -64t29 -106q0 -131 -122 -177.5t-429 -46.5q-237 0 -392 40v171h17q124 -37 354 -37q83 0 118.5 11t35.5 37t-35.5 37t-118.5 11q-143 0 -223 -16h-17v104l233 217h257z" />
    <glyph glyph-name="guillemotright" unicode="&#xbb;" horiz-adv-x="1118" 
d="M523 866v-618l-464 -256v439l235 120v12l-235 120v440zM1062 866v-618l-465 -256v439l236 120v12l-236 120v440z" />
    <glyph glyph-name="circumflex" unicode="&#x2c6;" horiz-adv-x="1562" 
d="M896 1226l-109 142h-13l-109 -142h-600l288 312h855l289 -312h-601z" />
    <glyph glyph-name="ring" unicode="&#x2da;" horiz-adv-x="933" 
d="M465 1206q-177 0 -288.5 78t-111.5 213t111.5 213t288.5 78q178 0 290.5 -78t112.5 -213t-112.5 -213t-290.5 -78zM465 1412q48 0 78.5 23t30.5 62q0 38 -30.5 61.5t-78.5 23.5q-46 0 -77 -23.5t-31 -61.5q0 -39 30.5 -62t77.5 -23z" />
    <glyph glyph-name="tilde" unicode="&#x2dc;" horiz-adv-x="1388" 
d="M988 1197q-95 0 -258 42t-215 42q-37 0 -50 -15t-13 -47h-387q0 174 96.5 274t235.5 100q96 0 260 -41.5t217 -41.5q36 0 48.5 15.5t12.5 45.5h388q0 -172 -98.5 -273t-236.5 -101z" />
    <glyph glyph-name="uni2000" unicode="&#x2000;" horiz-adv-x="894" 
 />
    <glyph glyph-name="uni2001" unicode="&#x2001;" horiz-adv-x="1788" 
 />
    <glyph glyph-name="uni2002" unicode="&#x2002;" horiz-adv-x="894" 
 />
    <glyph glyph-name="uni2003" unicode="&#x2003;" horiz-adv-x="1788" 
 />
    <glyph glyph-name="uni2004" unicode="&#x2004;" horiz-adv-x="596" 
 />
    <glyph glyph-name="uni2005" unicode="&#x2005;" horiz-adv-x="447" 
 />
    <glyph glyph-name="uni2006" unicode="&#x2006;" horiz-adv-x="298" 
 />
    <glyph glyph-name="uni2007" unicode="&#x2007;" horiz-adv-x="298" 
 />
    <glyph glyph-name="uni2008" unicode="&#x2008;" horiz-adv-x="223" 
 />
    <glyph glyph-name="uni2009" unicode="&#x2009;" horiz-adv-x="357" 
 />
    <glyph glyph-name="uni200A" unicode="&#x200a;" horiz-adv-x="99" 
 />
    <glyph glyph-name="uni2010" unicode="&#x2010;" 
d="M1006 364h-940v428h940v-428z" />
    <glyph glyph-name="uni2011" unicode="&#x2011;" 
d="M1006 364h-940v428h940v-428z" />
    <glyph glyph-name="figuredash" unicode="&#x2012;" 
d="M1006 364h-940v428h940v-428z" />
    <glyph glyph-name="endash" unicode="&#x2013;" horiz-adv-x="1632" 
d="M1565 435h-1499v330h1499v-330z" />
    <glyph glyph-name="emdash" unicode="&#x2014;" horiz-adv-x="2181" 
d="M2115 435h-2049v330h2049v-330z" />
    <glyph glyph-name="quoteleft" unicode="&#x2018;" horiz-adv-x="784" 
d="M57 696v279q0 259 155 373t516 114v-183q-145 1 -210 -50.5t-65 -118.5h275v-414h-671z" />
    <glyph glyph-name="quoteright" unicode="&#x2019;" horiz-adv-x="784" 
d="M728 1462v-279q0 -259 -155 -373t-516 -114v184q145 -1 210 50t65 118h-275v414h671z" />
    <glyph glyph-name="quotesinglbase" unicode="&#x201a;" horiz-adv-x="784" 
d="M728 414v-279q0 -259 -155 -373t-516 -114v184q145 -1 210 50t65 118h-275v414h671z" />
    <glyph glyph-name="quotedblleft" unicode="&#x201c;" horiz-adv-x="1579" 
d="M57 696v279q0 259 155 373t516 114v-183q-145 1 -210 -50.5t-65 -118.5h275v-414h-671zM851 696v279q0 259 155.5 373t516.5 114v-183q-145 1 -210 -50.5t-65 -118.5h275v-414h-672z" />
    <glyph glyph-name="quotedblright" unicode="&#x201d;" horiz-adv-x="1579" 
d="M728 1462v-279q0 -259 -155 -373t-516 -114v184q145 -1 210 50t65 118h-275v414h671zM1523 1462v-279q0 -259 -155.5 -373t-516.5 -114v184q145 -1 210 50t65 118h-275v414h672z" />
    <glyph glyph-name="quotedblbase" unicode="&#x201e;" horiz-adv-x="1579" 
d="M728 414v-279q0 -259 -155 -373t-516 -114v184q145 -1 210 50t65 118h-275v414h671zM1523 414v-279q0 -259 -155.5 -373t-516.5 -114v184q145 -1 210 50t65 118h-275v414h672z" />
    <glyph glyph-name="ellipsis" unicode="&#x2026;" horiz-adv-x="2461" 
d="M66 0v549h688v-549h-688zM887 0v549h687v-549h-687zM1707 0v549h687v-549h-687z" />
    <glyph glyph-name="uni202F" unicode="&#x202f;" horiz-adv-x="357" 
 />
    <glyph glyph-name="guilsinglleft" unicode="&#x2039;" horiz-adv-x="579" 
d="M57 866l464 257v-440l-235 -120v-12l235 -120v-439l-464 256v618z" />
    <glyph glyph-name="guilsinglright" unicode="&#x203a;" horiz-adv-x="579" 
d="M523 866v-618l-464 -256v439l235 120v12l-235 120v440z" />
    <glyph glyph-name="uni205F" unicode="&#x205f;" horiz-adv-x="447" 
 />
    <glyph glyph-name="Euro" unicode="&#x20ac;" horiz-adv-x="2154" 
d="M1009 527q104 -115 385 -115q274 0 556 106v-476q-72 -26 -241.5 -45.5t-320.5 -19.5q-497 0 -773 135t-341 415h-242l126 150h96v40v40h-222l126 150h116q65 279 337.5 414t755.5 135q244 0 434 -44.5t300 -100.5l-308 -367q-172 78 -420 78q-267 0 -367 -115h756
l-126 -150h-691q-2 -26 -2 -40t2 -40h623l-125 -150h-434z" />
    <glyph glyph-name="trademark" unicode="&#x2122;" horiz-adv-x="2326" 
d="M980 1462v-251h-305v-482h-330v482h-305v251h940zM2287 1462v-733h-334v430h-12l-150 -430h-240l-154 430h-12v-430h-311v733h495l94 -333h12l98 333h514z" />
    <glyph glyph-name="uni25FC" unicode="&#x25fc;" horiz-adv-x="1105" 
d="M0 1106h1106v-1106h-1106v1106z" />
    </font>
</defs>
</svg>
